<?xml version="1.0" encoding="utf-8"?>
<!-- Svg Vector Icons : http://www.onlinewebfonts.com/icon -->
<!DOCTYPE svg PUBLIC "-//W3C//DTD SVG 1.1//EN" "http://www.w3.org/Graphics/SVG/1.1/DTD/svg11.dtd">
<svg version="1.1" xmlns="http://www.w3.org/2000/svg" xmlns:xlink="http://www.w3.org/1999/xlink" x="0px" y="0px" viewBox="0 0 1000 1000" enable-background="new 0 0 1000 1000" xml:space="preserve">
<metadata> Svg Vector Icons : http://www.onlinewebfonts.com/icon </metadata>
<g><path d="M279.5,769.5C130.5,769.5,10,648.7,10,500c0-148.7,120.5-269.5,269.5-269.5H794c108.3,0,196,87.7,196,196c0,108.3-87.7,196-196,196H377.5C309.9,622.5,255,567.6,255,500c0-67.6,54.9-122.5,122.5-122.5H745V451H377.5c-26.9,0-49,21.8-49,49c0,27.2,22.1,49,49,49H794c67.6,0,122.5-54.9,122.5-122.5S861.6,304,794,304H279.5c-108.3,0-196,87.7-196,196c0,108.3,87.7,196,196,196H745v73.5H279.5L279.5,769.5z"/></g>
</svg>