<svg xmlns="http://www.w3.org/2000/svg" xmlns:xlink="http://www.w3.org/1999/xlink" version="1.1" x="0px" y="0px" viewBox="0 0 1000 1000" enable-background="new 0 0 1000 1000" xml:space="preserve">
<g><path d="M276.9,589.6c23.6,0,44.5-9,62.6-27.1c18.1-18.1,27.1-38.9,27.1-62.6c0-23.6-9-44.5-27.1-62.6c-18.1-18.1-38.9-27.1-62.6-27.1c-23.6,0-44.1,9-61.5,27.1c-17.4,18.1-26.1,38.9-26.1,62.6c0,23.6,8.7,44.5,26.1,62.6C232.8,580.6,253.3,589.6,276.9,589.6L276.9,589.6z M529.2,410.3H990v179.3h-89.7v177.2H723.1V589.7H529.2c-18.1,52.8-50,95.6-95.9,128.2c-45.9,32.7-98,49-156.4,49c-73.7,0-136.6-26.1-188.7-78.2C36.1,636.6,10,573.7,10,500s26.1-136.6,78.2-188.7c52.1-52.1,115-78.2,188.7-78.2c58.4,0,110.5,16.3,156.4,49S511.1,357.5,529.2,410.3L529.2,410.3z"/></g>
</svg>