<svg xmlns="http://www.w3.org/2000/svg" viewBox="0 0 1000 1000"><path d="M990 784c0 12.5-2.3 28.9-7 49.1-4.6 20.2-9.5 36.1-14.6 47.7-9.7 23.2-38 47.8-84.9 73.8C839.9 978.2 796.7 990 754 990c-12.5 0-24.7-.8-36.5-2.4-11.8-1.6-25.2-4.5-40-8.7-14.8-4.2-25.9-7.5-33.1-10.1-7.2-2.6-20.1-7.3-38.6-14.3-18.6-7-29.9-11.1-34.1-12.5-45.5-16.2-86.1-35.5-121.8-57.8-59.4-36.7-120.8-86.7-184.1-150s-113.3-124.7-150-184.1C93.5 514.4 74.3 473.8 58 428.3c-1.4-4.2-5.6-15.5-12.5-34.1-7-18.6-11.7-31.4-14.3-38.6-2.6-7.2-5.9-18.2-10.1-33.1-4.2-14.8-7.1-28.2-8.7-40S10 258.5 10 246c0-42.7 11.8-85.8 35.5-129.5 26-46.9 50.6-75.2 73.8-84.9 11.6-5.1 27.5-10 47.7-14.6 20.2-4.6 36.5-7 49.1-7 6.5 0 11.4.7 14.6 2.1 8.4 2.8 20.6 20.4 36.9 52.9 5.1 8.8 12.1 21.3 20.9 37.6 8.8 16.2 16.9 31 24.4 44.2 7.4 13.2 14.6 25.6 21.6 37.2 1.4 1.9 5.5 7.7 12.2 17.4 6.7 9.7 11.7 18 15 24.7 3.2 6.7 4.9 13.3 4.9 19.8 0 9.3-6.6 20.9-19.8 34.8-13.2 13.9-27.6 26.7-43.2 38.3-15.5 11.6-29.9 23.9-43.2 36.9-13.2 13-19.8 23.7-19.8 32 0 4.2 1.2 9.4 3.5 15.7 2.3 6.3 4.3 11 5.9 14.3 1.6 3.2 4.9 8.8 9.7 16.7s7.5 12.3 8 13.2c35.3 63.6 75.6 118.1 121.1 163.6s100 85.8 163.6 121.1c.9.5 5.3 3.1 13.2 8 7.9 4.9 13.5 8.1 16.7 9.7 3.2 1.6 8 3.6 14.3 5.9 6.3 2.3 11.5 3.5 15.7 3.5 8.4 0 19-6.6 32-19.8 13-13.2 25.3-27.6 36.9-43.2 11.6-15.5 24.4-29.9 38.3-43.2s25.5-19.8 34.8-19.8c6.5 0 13.1 1.6 19.8 4.9 6.7 3.2 15 8.2 24.7 15s15.5 10.8 17.4 12.2c11.6 7 24 14.2 37.2 21.6 13.2 7.4 28 15.5 44.2 24.4 16.2 8.8 28.8 15.8 37.6 20.9 32.5 16.2 50.1 28.5 52.9 36.9 1.2 3.1 1.9 8 1.9 14.5z"/></svg>